<svg   viewBox="0 0 60 60"  xmlns="http://www.w3.org/2000/svg"><g id="Page-1" fill="none" fill-rule="evenodd"><g id="020---Multi-Device-Users" fill-rule="nonzero"><path id="Shape" d="m25 51v4c0 2.209139-1.790861 4-4 4h-16c-2.209139 0-4-1.790861-4-4v-4c0 2.209139 1.790861 4 4 4h16c2.209139 0 4-1.790861 4-4z" fill="#3f51b5"/><path id="Shape" d="m22 54.86v.14c0 2.209139-1.790861 4-4 4h3c2.209139 0 4-1.790861 4-4v-4c-.0059072 1.819157-1.2385971 3.4052179-3 3.86z" fill="#283593"/><rect id="Rectangle-path" fill="#02a9f4" height="38" rx="4" width="24" x="1" y="17"/><path id="Shape" d="m21 17h-3c2.209139 0 4 1.790861 4 4v30c0 2.209139-1.790861 4-4 4h3c2.209139 0 4-1.790861 4-4v-30c0-2.209139-1.790861-4-4-4z" fill="#0377bc"/><path id="Shape" d="m59 51v4c0 2.209139-1.790861 4-4 4h-16c-2.209139 0-4-1.790861-4-4v-4c0 2.209139 1.790861 4 4 4h16c2.209139 0 4-1.790861 4-4z" fill="#3f51b5"/><path id="Shape" d="m56 54.86v.14c0 2.209139-1.790861 4-4 4h3c2.209139 0 4-1.790861 4-4v-4c-.0059072 1.819157-1.2385971 3.4052179-3 3.86z" fill="#283593"/><rect id="Rectangle-path" fill="#02a9f4" height="38" rx="4" width="24" x="35" y="17"/><path id="Shape" d="m55 17h-3c2.209139 0 4 1.790861 4 4v30c0 2.209139-1.790861 4-4 4h3c2.209139 0 4-1.790861 4-4v-30c0-2.209139-1.790861-4-4-4z" fill="#0377bc"/><path id="Shape" d="m35.81 14.5c-1.5109323 1.5962549-3.6120587 2.5005546-5.81 2.5005546s-4.2990677-.9042997-5.81-2.5005546c.5168823-1.9613247 1.9807189-3.5340107 3.9-4.19 1.1087973.9154435 2.7112027.9154435 3.82 0 1.9192811.6559893 3.3831177 2.2286753 3.9 4.19z" fill="#9d27b0"/><path id="Shape" d="m31.91 10.31c-.4667568.3833322-1.0383518.6168497-1.64.67 1.2562971.8152181 2.1623061 2.0707898 2.54 3.52-1.1548877 1.2156589-2.6625581 2.0377065-4.31 2.35.4944068.0954514.9964821.1456589 1.5.15 2.1978584.0001442 4.2989724-.9039496 5.81-2.5-.5168823-1.9613247-1.9807189-3.5340107-3.9-4.19z" fill="#6a1b9a"/><path id="Shape" d="m38 9c.0001418 2.045922-.7835705 4.0141492-2.19 5.5-.5168823-1.9613247-1.9807189-3.5340107-3.9-4.19.689354-.56914235 1.0889812-1.4160588 1.09-2.31 0-1.65685425-1.3431458-3-3-3s-3 1.34314575-3 3c.0010188.8939412.400646 1.74085765 1.09 2.31-1.9192811.6559893-3.3831177 2.2286753-3.9 4.19-2.4703395-2.60984-2.8973092-6.54663605-1.0439347-9.62540936 1.8533745-3.07877332 5.5322332-4.54392342 8.9947563-3.5822708s5.8589293 4.11409671 5.8591784 7.70768016z" fill="#673ab7"/><path id="Shape" d="m30 1c-.5037755-.00063986-1.006327.04961529-1.5.15 3.7687706.71940134 6.4961068 4.01318431 6.5 7.85.0011939 1.0270263-.1922171 2.0449793-.57 3 .6587095.7186965 1.1323718 1.5870774 1.38 2.53 2.2180596-2.3186622 2.8361219-5.73826156 1.5700354-8.6866523s-4.1713213-4.85502958-7.3800354-4.8433477z" fill="#4527a0"/><path id="Shape" d="m33 8c0 1.65685425-1.3431458 3-3 3s-3-1.34314575-3-3 1.3431458-3 3-3 3 1.34314575 3 3z" fill="#e91e63"/><path id="Shape" d="m30 5c-.527345.00245355-1.0447262.14387107-1.5.41.9257091.53445321 1.4971202 1.5210897 1.5 2.59-.0010188.8939412-.400646 1.74085765-1.09 2.31-.1301402.1055783-.2671043.2024553-.41.29.4562438.2626328.9735647.400585 1.5.4 1.6568542 0 3-1.34314575 3-3s-1.3431458-3-3-3z" fill="#ad1457"/><path id="Shape" d="m18.81 38.5c-1.5109323 1.5962549-3.6120587 2.5005546-5.81 2.5005546s-4.29906772-.9042997-5.81-2.5005546c.5168823-1.9613247 1.98071889-3.5340107 3.9-4.19 1.1087973.9154435 2.7112027.9154435 3.82 0 1.9192811.6559893 3.3831177 2.2286753 3.9 4.19z" fill="#ffdc00"/><path id="Shape" d="m21 33c.0001418 2.045922-.7835705 4.0141492-2.19 5.5-.5168823-1.9613247-1.9807189-3.5340107-3.9-4.19.689354-.5691424 1.0889812-1.4160588 1.09-2.31 0-1.6568542-1.3431458-3-3-3s-3 1.3431458-3 3c.0010188.8939412.400646 1.7408576 1.09 2.31-1.91928111.6559893-3.3831177 2.2286753-3.9 4.19-2.4703395-2.60984-2.8973092-6.5466361-1.04393472-9.6254094s5.53223322-4.5439234 8.99475632-3.5822708c3.4625231.9616527 5.8589293 4.1140968 5.8591784 7.7076802z" fill="#ff9801"/><path id="Shape" d="m16 32c0 1.6568542-1.3431458 3-3 3s-3-1.3431458-3-3 1.3431458-3 3-3 3 1.3431458 3 3z" fill="#ffeb3a"/><rect id="Rectangle-path" fill="#9d27b0" height="4" rx="1" width="12" x="7" y="46"/><path id="Shape" d="m52.81 38.5c-1.5109323 1.5962549-3.6120587 2.5005546-5.81 2.5005546s-4.2990677-.9042997-5.81-2.5005546c.5168823-1.9613247 1.9807189-3.5340107 3.9-4.19 1.1087973.9154435 2.7112027.9154435 3.82 0 1.9192811.6559893 3.3831177 2.2286753 3.9 4.19z" fill="#ffdc00"/><path id="Shape" d="m48.91 34.31c-.4667568.3833322-1.0383518.6168497-1.64.67 1.2562971.8152181 2.1623061 2.0707898 2.54 3.52-1.1548877 1.2156589-2.6625581 2.0377065-4.31 2.35.4944068.0954514.9964821.1456589 1.5.15 2.1978584.0001442 4.2989724-.9039496 5.81-2.5-.5168823-1.9613247-1.9807189-3.5340107-3.9-4.19z" fill="#fec108"/><path id="Shape" d="m55 33c.0001418 2.045922-.7835705 4.0141492-2.19 5.5-.5168823-1.9613247-1.9807189-3.5340107-3.9-4.19.689354-.5691424 1.0889812-1.4160588 1.09-2.31 0-1.6568542-1.3431458-3-3-3s-3 1.3431458-3 3c.0010188.8939412.400646 1.7408576 1.09 2.31-1.9192811.6559893-3.3831177 2.2286753-3.9 4.19-2.4703395-2.60984-2.8973092-6.5466361-1.0439347-9.6254094s5.5322332-4.5439234 8.9947563-3.5822708c3.4625231.9616527 5.8589293 4.1140968 5.8591784 7.7076802z" fill="#ff9801"/><path id="Shape" d="m47 25c-.5037755-.0006399-1.006327.0496153-1.5.15 3.7687706.7194013 6.4961068 4.0131843 6.5 7.85.0011939 1.0270263-.1922171 2.0449793-.57 3 .6587095.7186965 1.1323718 1.5870774 1.38 2.53 2.2180596-2.3186622 2.8361219-5.7382616 1.5700354-8.6866523s-4.1713213-4.8550296-7.3800354-4.8433477z" fill="#f57c00"/><path id="Shape" d="m50 32c-.0000001 1.6568542-1.3431458 2.9999999-3 2.9999999s-2.9999999-1.3431457-3-2.9999999c0-1.6568542 1.3431458-3 3-3s3 1.3431458 3 3z" fill="#ffeb3a"/><path id="Shape" d="m47 29c-.527345.0024536-1.0447262.1438711-1.5.41.9257091.5344532 1.4971202 1.5210897 1.5 2.59-.0010188.8939412-.400646 1.7408576-1.09 2.31-.1301402.1055783-.2671043.2024553-.41.29.4562438.2626328.9735647.400585 1.5.4 1.6568542 0 3-1.3431458 3-3s-1.3431458-3-3-3z" fill="#fdd834"/><rect id="Rectangle-path" fill="#9d27b0" height="4" rx="1" width="12" x="41" y="46"/><path id="Shape" d="m52 46h-3c.5522847 0 1 .4477153 1 1v2c0 .5522847-.4477153 1-1 1h3c.5522847 0 1-.4477153 1-1v-2c0-.5522847-.4477153-1-1-1z" fill="#6a1b9a"/><path id="Shape" d="m20 17-2.4 3.2c-.3777088.5036117-.9704854.8-1.6.8h-6c-.62951461 0-1.22229124-.2963883-1.6-.8l-2.4-3.2z" fill="#3f51b5"/><path id="Shape" d="m54 17-2.4 3.2c-.3777088.5036117-.9704854.8-1.6.8h-6c-.6295146 0-1.2222912-.2963883-1.6-.8l-2.4-3.2z" fill="#3f51b5"/><g fill="#000"><path id="Shape" d="m5 60h16c2.7614237 0 5-2.2385763 5-5v-34c0-2.7614237-2.2385763-5-5-5h-16c-2.76142375 0-5 2.2385763-5 5v34c0 2.7614237 2.23857625 5 5 5zm16-2h-16c-1.65685425 0-3-1.3431458-3-3 .86271239.6543771 1.91720386 1.0058742 3 1h16c1.0827961.0058742 2.1372876-.3456229 3-1 0 1.6568542-1.3431458 3-3 3zm-3-40-1.2 1.6c-.1888544.2518058-.4852427.4-.8.4h-6c-.3147573 0-.61114562-.1481942-.8-.4l-1.2-1.6zm-16 3c0-1.6568542 1.34314575-3 3-3h.5l2.1 2.8c.56656315.7554175 1.45572809 1.2 2.4 1.2h6c.9442719 0 1.8334369-.4445825 2.4-1.2l2.1-2.8h.5c1.6568542 0 3 1.3431458 3 3v30c0 1.6568542-1.3431458 3-3 3h-16c-1.65685425 0-3-1.3431458-3-3z"/><path id="Shape" d="m55 16h-16c-2.7614237 0-5 2.2385763-5 5v34c0 2.7614237 2.2385763 5 5 5h16c2.7614237 0 5-2.2385763 5-5v-34c0-2.7614237-2.2385763-5-5-5zm-3 2-1.2 1.6c-.1888544.2518058-.4852427.4-.8.4h-6c-.3147573 0-.6111456-.1481942-.8-.4l-1.2-1.6zm-16 3c0-1.6568542 1.3431458-3 3-3h.5l2.1 2.8c.5665631.7554175 1.4557281 1.2 2.4 1.2h6c.9442719 0 1.8334369-.4445825 2.4-1.2l2.1-2.8h.5c1.6568542 0 3 1.3431458 3 3v30c0 1.6568542-1.3431458 3-3 3h-16c-1.6568542 0-3-1.3431458-3-3zm19 37h-16c-1.6568542 0-3-1.3431458-3-3 .8627124.6543771 1.9172039 1.0058742 3 1h16c1.0827961.0058742 2.1372876-.3456229 3-1 0 1.6568542-1.3431458 3-3 3z"/><path id="Shape" d="m13 42c4.9705627 0 9-4.0294373 9-9s-4.0294373-9-9-9c-4.97056275 0-9 4.0294373-9 9s4.02943725 9 9 9zm-4.66-3.79c.49241798-1.2366734 1.44624327-2.2335284 2.66-2.78 1.2293422.7447277 2.7706578.7447277 4 0 1.206205.5506618 2.1523442 1.546975 2.64 2.78-2.6551445 2.3687371-6.6648555 2.3687371-9.32 0zm4.66-4.21c-1.1045695 0-2-.8954305-2-2s.8954305-2 2-2 2 .8954305 2 2-.8954305 2-2 2zm0-8c3.8659932 0 7 3.1340068 7 7 .0001143 1.2303757-.3278144 2.4385342-.95 3.5-.616841-1.0643315-1.5032717-1.9473131-2.57-2.56.9308887-1.682481.5329387-3.7892467-.9475254-5.0162438-1.4804641-1.2269972-3.6244851-1.2269972-5.1049492 0-1.48046411 1.2269971-1.87841407 3.3337628-.9475254 5.0162438-1.03370859.6250517-1.88807109 1.5069743-2.48 2.56-.6397034-1.0565205-.98498263-2.2649978-1-3.5 0-3.8659932 3.13400675-7 7-7z"/><path id="Shape" d="m47 14c.5522847 0 1-.4477153 1-1v-4c0-1.1045695-.8954305-2-2-2h-7.23c-.9415762-4.08458009-4.5782987-6.97834226-8.77-6.97834226s-7.8284238 2.89376217-8.77 6.97834226h-7.23c-1.1045695 0-2 .8954305-2 2v4c0 .5522847.4477153 1 1 1s1-.4477153 1-1v-4h7c0 4.9705627 4.0294373 9 9 9s9-4.0294373 9-9h7v4c0 .5522847.4477153 1 1 1zm-21.66.21c.492418-1.2366734 1.4462433-2.2335284 2.66-2.78 1.2293422.7447277 2.7706578.7447277 4 0 1.206205.5506618 2.1523442 1.546975 2.64 2.78-2.6551445 2.3687371-6.6648555 2.3687371-9.32 0zm4.66-4.21c-1.1045695 0-2-.8954305-2-2s.8954305-2 2-2 2 .8954305 2 2c0 .53043298-.2107137 1.03914081-.5857864 1.41421356-.3750728.37507276-.8837806.58578644-1.4142136.58578644zm6 2.5c-.616841-1.0643315-1.5032717-1.9473131-2.57-2.56.9308887-1.68248096.5329387-3.78924671-.9475254-5.01624383s-3.6244851-1.22699712-5.1049492 0-1.8784141 3.33376287-.9475254 5.01624383c-1.0153754.6317555-1.8519709 1.5131072-2.43 2.56-.6397034-1.0565205-.9849826-2.2649978-1-3.5 0-3.86599325 3.1340068-7 7-7s7 3.13400675 7 7c.0001143 1.2303757-.3278144 2.4385342-.95 3.5z"/><path id="Shape" d="m18 45h-10c-1.1045695 0-2 .8954305-2 2v2c0 1.1045695.8954305 2 2 2h10c1.1045695 0 2-.8954305 2-2v-2c0-1.1045695-.8954305-2-2-2zm-10 4v-2h10v2z"/><path id="Shape" d="m47 42c4.9705627 0 9-4.0294373 9-9s-4.0294373-9-9-9-9 4.0294373-9 9 4.0294373 9 9 9zm-4.66-3.79c.492418-1.2366734 1.4462433-2.2335284 2.66-2.78 1.2293422.7447277 2.7706578.7447277 4 0 1.206205.5506618 2.1523442 1.546975 2.64 2.78-2.6551445 2.3687371-6.6648555 2.3687371-9.32 0zm4.66-4.21c-1.1045695 0-2-.8954305-2-2s.8954305-2 2-2 2 .8954305 2 2-.8954305 2-2 2zm0-8c3.8659932 0 7 3.1340068 7 7-.0150174 1.2350022-.3602966 2.4434795-1 3.5-.616841-1.0643315-1.5032717-1.9473131-2.57-2.56.9308887-1.682481.5329387-3.7892467-.9475254-5.0162438-1.4804641-1.2269972-3.6244851-1.2269972-5.1049492 0-1.4804641 1.2269971-1.8784141 3.3337628-.9475254 5.0162438-1.0153754.6317555-1.8519709 1.5131072-2.43 2.56-.6397034-1.0565205-.9849826-2.2649978-1-3.5 0-3.8659932 3.1340068-7 7-7z"/><path id="Shape" d="m52 45h-10c-1.1045695 0-2 .8954305-2 2v2c0 1.1045695.8954305 2 2 2h10c1.1045695 0 2-.8954305 2-2v-2c0-1.1045695-.8954305-2-2-2zm-10 4v-2h10v2z"/></g></g></g></svg>